<mxfile host="65bd71144e">
    <diagram id="-u73X2JM7uk0Jh8hUOT2" name="Page-1">
        <mxGraphModel dx="888" dy="570" grid="1" gridSize="10" guides="1" tooltips="1" connect="1" arrows="1" fold="1" page="1" pageScale="1" pageWidth="850" pageHeight="1100" math="0" shadow="0">
            <root>
                <mxCell id="0"/>
                <mxCell id="1" parent="0"/>
                <mxCell id="23" value="" style="rounded=0;whiteSpace=wrap;html=1;" vertex="1" parent="1">
                    <mxGeometry x="100" y="360" width="620" height="200" as="geometry"/>
                </mxCell>
                <mxCell id="10" value="" style="rounded=0;whiteSpace=wrap;html=1;" vertex="1" parent="1">
                    <mxGeometry x="10" y="120" width="610" height="200" as="geometry"/>
                </mxCell>
                <mxCell id="2" value="Node (Value)" style="rounded=0;whiteSpace=wrap;html=1;" vertex="1" parent="1">
                    <mxGeometry x="90" y="40" width="120" height="60" as="geometry"/>
                </mxCell>
                <mxCell id="3" value="" style="endArrow=classic;html=1;" edge="1" parent="1" target="4">
                    <mxGeometry width="50" height="50" relative="1" as="geometry">
                        <mxPoint x="210" y="70" as="sourcePoint"/>
                        <mxPoint x="320" y="70" as="targetPoint"/>
                    </mxGeometry>
                </mxCell>
                <mxCell id="4" value="null" style="rounded=0;whiteSpace=wrap;html=1;" vertex="1" parent="1">
                    <mxGeometry x="260" y="40" width="120" height="60" as="geometry"/>
                </mxCell>
                <mxCell id="5" value="next" style="text;html=1;strokeColor=none;fillColor=none;align=center;verticalAlign=middle;whiteSpace=wrap;rounded=0;" vertex="1" parent="1">
                    <mxGeometry x="210" y="50" width="40" height="20" as="geometry"/>
                </mxCell>
                <mxCell id="6" value="newNode" style="rounded=0;whiteSpace=wrap;html=1;" vertex="1" parent="1">
                    <mxGeometry x="200" y="200" width="120" height="60" as="geometry"/>
                </mxCell>
                <mxCell id="8" value="Head" style="shape=process;whiteSpace=wrap;html=1;backgroundOutline=1;" vertex="1" parent="1">
                    <mxGeometry x="110" y="150" width="70" height="40" as="geometry"/>
                </mxCell>
                <mxCell id="9" value="Tail" style="shape=process;whiteSpace=wrap;html=1;backgroundOutline=1;" vertex="1" parent="1">
                    <mxGeometry x="340" y="140" width="70" height="40" as="geometry"/>
                </mxCell>
                <mxCell id="11" value="List" style="text;html=1;strokeColor=none;fillColor=none;align=center;verticalAlign=middle;whiteSpace=wrap;rounded=0;" vertex="1" parent="1">
                    <mxGeometry x="10" y="100" width="40" height="20" as="geometry"/>
                </mxCell>
                <mxCell id="12" style="edgeStyle=orthogonalEdgeStyle;rounded=0;orthogonalLoop=1;jettySize=auto;html=1;exitX=0;exitY=0.25;exitDx=0;exitDy=0;entryX=0.25;entryY=0;entryDx=0;entryDy=0;" edge="1" parent="1" source="11" target="11">
                    <mxGeometry relative="1" as="geometry"/>
                </mxCell>
                <mxCell id="14" value="" style="endArrow=classic;html=1;entryX=0;entryY=0.5;entryDx=0;entryDy=0;" edge="1" parent="1" target="6">
                    <mxGeometry width="50" height="50" relative="1" as="geometry">
                        <mxPoint x="180" y="190" as="sourcePoint"/>
                        <mxPoint x="230" y="140" as="targetPoint"/>
                    </mxGeometry>
                </mxCell>
                <mxCell id="16" value="" style="endArrow=classic;html=1;exitX=0.5;exitY=1;exitDx=0;exitDy=0;entryX=0.5;entryY=0;entryDx=0;entryDy=0;" edge="1" parent="1" source="9" target="17">
                    <mxGeometry width="50" height="50" relative="1" as="geometry">
                        <mxPoint x="350" y="255" as="sourcePoint"/>
                        <mxPoint x="290" y="200" as="targetPoint"/>
                    </mxGeometry>
                </mxCell>
                <mxCell id="17" value="" style="rounded=0;whiteSpace=wrap;html=1;" vertex="1" parent="1">
                    <mxGeometry x="400" y="200" width="120" height="60" as="geometry"/>
                </mxCell>
                <mxCell id="19" value="" style="endArrow=classic;html=1;exitX=1;exitY=0.5;exitDx=0;exitDy=0;entryX=0;entryY=0.5;entryDx=0;entryDy=0;" edge="1" parent="1" source="6" target="17">
                    <mxGeometry width="50" height="50" relative="1" as="geometry">
                        <mxPoint x="320" y="255" as="sourcePoint"/>
                        <mxPoint x="370" y="230" as="targetPoint"/>
                    </mxGeometry>
                </mxCell>
                <mxCell id="20" value="Node.val = 4, target = 5, return undefined" style="rounded=0;whiteSpace=wrap;html=1;" vertex="1" parent="1">
                    <mxGeometry x="180" y="430" width="440" height="70" as="geometry"/>
                </mxCell>
                <mxCell id="21" value="Node.val = 5, target = 5, return true" style="rounded=0;whiteSpace=wrap;html=1;" vertex="1" parent="1">
                    <mxGeometry x="180" y="370" width="440" height="60" as="geometry"/>
                </mxCell>
                <mxCell id="24" value="Recursive Call Stack" style="text;html=1;strokeColor=none;fillColor=none;align=center;verticalAlign=middle;whiteSpace=wrap;rounded=0;" vertex="1" parent="1">
                    <mxGeometry x="70" y="340" width="40" height="20" as="geometry"/>
                </mxCell>
                <mxCell id="25" value="Undefined" style="text;html=1;strokeColor=none;fillColor=none;align=center;verticalAlign=middle;whiteSpace=wrap;rounded=0;" vertex="1" parent="1">
                    <mxGeometry x="390" y="520" width="40" height="20" as="geometry"/>
                </mxCell>
            </root>
        </mxGraphModel>
    </diagram>
</mxfile>